# xmcd
#
# Track frame offsets:
# 150
# 15346
# 24095
# 37454
# 50863
# 64902
# 82521
# 92766
# 102155
# 113099
# 127542
# 139653
# 156045
# 169884
# 183401
# 195223
# 206730
# 218196
# 229958
# 245654
#
# Disc length: 3463 seconds
#
#
# Revision: 0
# Processed by: cddbd v1.5.2PL0 Copyright (c) Steve Scherf et al.
# Submitted via: FreeRIP 2.951 
#
DISCID=070d8514
DTITLE=Tonico and Tinoco - As 20 Mais
DYEAR=2007
DGENRE=Country
TTITLE0=Sertão do Laranjinha
TTITLE1=Festa na roça
TTITLE2=Tristeza de jeca
TTITLE3=Rei do gado
TTITLE4=Saudade de matão
TTITLE5=Cabocla Tereza
TTITLE6=Rio Grande
TTITLE7=Siriema
TTITLE8=Baile da Colina
TTITLE9=Couro de boi
TTITLE10=Gaucho Velho
TTITLE11=Pé de Ipê
TTITLE12=Moreninha Linda
TTITLE13=Quadrilha no terreiro
TTITLE14=Aparecida do norte
TTITLE15=Arrasta pé na tuia
TTITLE16=Cana verde
TTITLE17=Cavalo preto
TTITLE18=Ferreirinha
TTITLE19=A Saldade vai
EXTD=NELDVD:2007
EXTT0=
EXTT1=
EXTT2=
EXTT3=
EXTT4=
EXTT5=
EXTT6=
EXTT7=
EXTT8=
EXTT9=
EXTT10=
EXTT11=
EXTT12=
EXTT13=
EXTT14=
EXTT15=
EXTT16=
EXTT17=
EXTT18=
EXTT19=
PLAYORDER=
